<?xml version="1.0" encoding="utf-8"?>
<!-- Generator: Adobe Illustrator 16.0.2, SVG Export Plug-In . SVG Version: 6.00 Build 0)  -->
<!DOCTYPE svg PUBLIC "-//W3C//DTD SVG 1.1//EN" "http://www.w3.org/Graphics/SVG/1.1/DTD/svg11.dtd">
<svg version="1.1" id="Layer_1" xmlns="http://www.w3.org/2000/svg" xmlns:xlink="http://www.w3.org/1999/xlink" x="0px" y="0px"
	 width="200px" height="200px" viewBox="0 0 200 200" enable-background="new 0 0 200 200" xml:space="preserve">
<path fill="#F64C4D" d="M102.785,6.141c-0.679-0.014-1.358-0.024-2.043-0.024c-37.384,0-69.665,21.85-84.766,53.475l14.179,5.719
	l18.072,7.292c9.883-18.918,29.695-31.825,52.515-31.825c0.685,0,1.364,0.009,2.043,0.039c21.957,0.738,40.885,13.437,50.473,31.787
	l32.252-13.011C170.685,28.544,139.301,6.917,102.785,6.141 M154.646,124.563c-9.063,19.864-28.786,33.845-51.86,34.621
	c-0.674,0.029-1.358,0.039-2.043,0.039c-23.946,0-44.573-14.214-53.903-34.66l-32.174,12.976
	c14.485,33.165,47.573,56.345,86.077,56.345c0.685,0,1.364-0.009,2.043-0.02c37.633-0.806,69.807-23.748,84.035-56.325
	L154.646,124.563z"/>
<path fill="#353434" d="M137.233,103.777c-0.254,2.005-3.059,2.247-3.661,0.314c-6.324-20.373-25.912-17.004-29.394-16.228
	l-2.393,16.689l-3.233,22.549c-1.296,9.033-8.252,16.296-17.267,17.742c-1.015,0.16-2.068,0.253-3.146,0.253
	c-11.102,0-16.505-6.714-16.505-17.219c0-10.5,10.505-14.253,15.903-14.253c5.403,0,14.102,5.103,14.102,5.103l8.844-63.189
	c0.141-0.995,0.617-1.85,1.301-2.466c0.743-0.685,1.728-1.087,2.776-1.087c0.277,0,0.559,0.028,0.846,0.087
	c2.131,0.441,3.548,2.466,3.237,4.621l-0.292,2.054C138.369,61.442,139.15,88.709,137.233,103.777"/>
<path fill="#D1D1D1" d="M83.14,94.667c-0.096-0.014-0.192-0.035-0.287-0.064l-27.23-8.302c-1.026-0.313-1.604-1.397-1.292-2.424
	c0.313-1.026,1.398-1.605,2.424-1.291l27.231,8.302c1.026,0.313,1.604,1.397,1.291,2.424C84.992,94.241,84.073,94.804,83.14,94.667"
	/>
<path fill="#D1D1D1" d="M78.796,82.832c-0.085-0.045-0.169-0.096-0.25-0.154L63.375,71.632c-0.869-0.63-1.061-1.844-0.432-2.712
	c0.63-0.868,1.843-1.063,2.711-0.433l15.172,11.046c0.868,0.629,1.062,1.844,0.432,2.712C80.687,83.032,79.635,83.266,78.796,82.832
	"/>
<path fill="#D1D1D1" d="M90.694,85.576c-0.605-0.089-1.159-0.461-1.455-1.05L75.948,58.047c-0.481-0.958-0.094-2.126,0.864-2.606
	c0.958-0.481,2.125-0.095,2.605,0.864l13.292,26.479c0.482,0.959,0.095,2.126-0.864,2.607
	C91.475,85.575,91.075,85.632,90.694,85.576"/>
<path fill="#D1D1D1" d="M145.16,116.121c-0.315,1.025-1.398,1.603-2.422,1.291l-27.233-8.3c-1.024-0.315-1.603-1.398-1.292-2.428
	c0.283-0.927,1.204-1.49,2.137-1.354c0.097,0.014,0.193,0.033,0.285,0.063l27.234,8.301
	C144.893,114.011,145.471,115.093,145.16,116.121"/>
<path fill="#D1D1D1" d="M136.548,131.078c-0.63,0.868-1.845,1.063-2.714,0.433l-15.169-11.045c-0.869-0.631-1.063-1.844-0.433-2.713
	c0.568-0.786,1.621-1.02,2.461-0.587c0.088,0.043,0.17,0.097,0.248,0.154l15.175,11.044
	C136.985,128.995,137.175,130.209,136.548,131.078"/>
<path fill="#D1D1D1" d="M122.68,144.559c-0.961,0.48-2.127,0.093-2.607-0.864l-13.291-26.48c-0.48-0.962-0.098-2.126,0.864-2.606
	c0.369-0.185,0.771-0.243,1.15-0.185c0.606,0.087,1.161,0.461,1.456,1.049l13.291,26.48
	C124.024,142.907,123.636,144.078,122.68,144.559"/>
<g opacity="0.5">
	<g>
		<defs>
			<rect id="SVGID_1_" x="101.786" y="6.141" width="84.034" height="187.723"/>
		</defs>
		<clipPath id="SVGID_2_">
			<use xlink:href="#SVGID_1_"  overflow="visible"/>
		</clipPath>
		<path clip-path="url(#SVGID_2_)" fill="#D1D1D1" d="M110.252,115.472l13.291,26.48c0.48,0.956,0.093,2.126-0.863,2.606
			c-0.961,0.48-2.127,0.092-2.607-0.864l-13.291-26.48c-0.48-0.961-0.098-2.126,0.864-2.606c0.369-0.185,0.771-0.243,1.15-0.185
			C109.402,114.51,109.955,114.884,110.252,115.472"/>
		<path clip-path="url(#SVGID_2_)" fill="#D1D1D1" d="M133.835,131.511l-15.17-11.045c-0.869-0.631-1.063-1.844-0.433-2.713
			c0.568-0.786,1.621-1.02,2.462-0.587c0.087,0.043,0.169,0.097,0.247,0.154l15.175,11.044c0.869,0.632,1.058,1.845,0.433,2.714
			C135.918,131.946,134.704,132.141,133.835,131.511"/>
		<path clip-path="url(#SVGID_2_)" fill="#D1D1D1" d="M104.18,87.864l-2.394,16.689v-51.48c0.743-0.684,1.728-1.088,2.777-1.088
			c0.276,0,0.558,0.029,0.845,0.088c2.131,0.441,3.548,2.467,3.237,4.621l-0.292,2.054c30.016,2.694,30.797,29.961,28.88,45.029
			c-0.253,2.004-3.059,2.247-3.661,0.315C127.247,83.719,107.659,87.088,104.18,87.864"/>
		<path clip-path="url(#SVGID_2_)" fill="#D1D1D1" d="M142.738,117.413l-27.233-8.301c-1.024-0.316-1.603-1.398-1.292-2.428
			c0.281-0.928,1.204-1.49,2.136-1.354c0.098,0.014,0.194,0.033,0.288,0.063l27.231,8.301c1.024,0.316,1.603,1.398,1.292,2.428
			C144.845,117.146,143.762,117.724,142.738,117.413"/>
		<path clip-path="url(#SVGID_2_)" fill="#D1D1D1" d="M101.786,40.816V6.141c36.515,0.777,67.898,22.403,82.723,53.452
			l-32.251,13.01C142.669,54.252,123.742,41.553,101.786,40.816"/>
		<path clip-path="url(#SVGID_2_)" fill="#D1D1D1" d="M185.82,137.539c-14.229,32.577-46.402,55.52-84.034,56.325v-34.68
			c23.073-0.776,42.797-14.757,51.859-34.621L185.82,137.539z"/>
	</g>
</g>
<g>
	<path fill="#FFFFFF" d="M81.121,29.453l2.456,2.287c0,0-1.118,1.939-4.263,3.114c-4.095,1.529-9.102-0.405-10.65-4.552
		c-1.556-4.165,0.927-8.937,5.039-10.472c3.146-1.175,5.261-0.443,5.261-0.443l-0.355,3.337c0,0-1.495-0.463-3.182,0.167
		c-3.321,1.241-3.914,4.105-3.191,6.038c0.729,1.951,3.053,3.725,6.375,2.485C80.296,30.782,81.121,29.453,81.121,29.453z"/>
	<path fill="#FFFFFF" d="M87.773,29.106l5.237-0.981l0.57,3.043l-8.705,1.63l-2.851-15.214l3.467-0.649L87.773,29.106z"/>
	<path fill="#FFFFFF" d="M109.219,30.719l-3.789,0.062l-1.194-3.076l-5.89,0.096l-1.094,3.114l-3.79,0.062l5.994-15.577l3.263-0.054
		L109.219,30.719z M101.185,20.155l-0.038,0l-1.652,4.53l3.489-0.057L101.185,20.155z"/>
	<path fill="#FFFFFF" d="M108.771,15.292l3.916,0.689l2.08,10.688l5.605-9.335l3.916,0.689l-9.074,14.114l-2.733-0.481
		L108.771,15.292z"/>
	<path fill="#FFFFFF" d="M134.196,25.026l-4.999-1.837l-1.061,2.887l4.787,1.76l-1.068,2.904l-4.787-1.76l-1.074,2.922l4.999,1.837
		l-1.067,2.905l-8.309-3.054l5.338-14.522l8.309,3.054L134.196,25.026z"/>
</g>
<g>
	<path fill="#FFFFFF" d="M74.844,163.534c3.927,1.597,6.014,5.928,4.319,10.098c-1.703,4.188-6.202,5.843-10.146,4.239l-4.153-1.688
		l5.828-14.336L74.844,163.534z M69.82,174.796c2.416,0.982,4.815-0.189,5.808-2.58c0.975-2.397,0.08-4.929-2.353-5.918
		l-0.504-0.204l-3.454,8.497L69.82,174.796z"/>
	<path fill="#FFFFFF" d="M90.604,171.409l-5.199-1.159l-0.669,3.003l4.979,1.11l-0.673,3.021l-4.98-1.11l-0.677,3.04l5.199,1.158
		l-0.673,3.021l-8.642-1.926l3.365-15.104l8.641,1.926L90.604,171.409z"/>
	<path fill="#FFFFFF" d="M107.086,170.13l-1.379,2.837c0,0-1.556-1.044-3.15-1.018c-1.2,0.02-1.83,0.573-1.815,1.417
		c0.014,0.863,1.487,1.459,3.262,2.181c1.738,0.703,3.656,2.135,3.689,4.16c0.061,3.696-2.732,5.036-5.752,5.086
		c-3.621,0.059-5.849-1.95-5.849-1.95l1.714-2.992c0,0,2.092,1.711,3.818,1.683c0.77-0.013,2.231-0.112,2.208-1.557
		c-0.019-1.125-1.678-1.604-3.531-2.493c-1.872-0.889-2.983-2.315-3.01-3.929c-0.047-2.889,2.474-4.77,4.969-4.81
		C105.074,168.699,107.086,170.13,107.086,170.13z"/>
	<path fill="#FFFFFF" d="M114.982,167.478c4.216-0.827,8.311,1.927,9.181,6.364c0.869,4.436-1.732,8.521-6.097,9.377
		c-4.492,0.881-8.332-1.942-9.203-6.379C107.994,172.403,110.803,168.297,114.982,167.478z M117.41,179.867
		c2.762-0.541,3.459-3.028,3.016-5.294c-0.443-2.264-2.104-4.29-4.791-3.764c-2.669,0.523-3.478,3.033-3.033,5.298
		C113.045,178.372,114.575,180.424,117.41,179.867z"/>
	<path fill="#FFFFFF" d="M130.834,176.035l4.956-1.956l1.137,2.879l-8.236,3.252l-5.685-14.396l3.281-1.296L130.834,176.035z"/>
</g>
</svg>
